# File created by Blade
# Date/Time:  Wed Apr 08 17:00:17 2015
# Frame Rate: 120.000 fps
#------------------------------------------------------
:FULLY-SPECIFIED
:DEGREES
2235
root 2.132356 35.941631 2.696250 -84.483399 -88.337212 76.147331
Spine 10.768537 1.664163 -6.393623
Head 7.154491 -5.220860 6.778713
LeftShoulder -7.785621 7.547918 30.020316
LeftArm 10.618204 -26.799638 -34.043778
LeftForeArm 23.288188 -0.000000 24.091780
LeftHand -14.589350 -0.000000 -8.594170
LeftHandThumb1 -26.253704 0.000000 33.147579
RightShoulder -27.030363 -40.020746 -7.545355
RightArm 52.685385 53.673599 58.248576
RightForeArm 1.820013 -0.000000 13.104043
RightHand 0.810362 -0.000000 8.977603
RightHandThumb1 -24.326973 -0.000000 -32.862282
LeftUpLeg 12.819179 12.334790 6.721780
LeftLeg 7.215678 -0.000000 -0.000000
LeftFoot -13.083523 2.368744 -15.391480
LeftToeBase 7.542898 -0.000000 -0.000000
RightUpLeg 13.789944 -11.151218 -12.639706
RightLeg 2.306894 -0.000000 -0.000000
RightFoot -8.616866 6.104876 19.182842
RightToeBase 15.048952 -0.000000 -0.000000
2236
root 2.136872 35.942320 2.696188 -84.741871 -88.334851 76.433744
Spine 10.794206 1.685406 -6.361615
Head 7.145376 -5.138333 6.768400
LeftShoulder -7.618794 7.410697 30.147315
LeftArm 10.322532 -26.832808 -33.967941
LeftForeArm 23.442986 -0.000000 23.648983
LeftHand -14.444618 -0.000000 -8.902045
LeftHandThumb1 -26.253704 0.000000 33.147579
RightShoulder -26.993874 -40.019536 -7.619592
RightArm 52.584944 53.702284 58.057815
RightForeArm 1.711491 -0.000000 12.795927
RightHand 0.658994 -0.000000 9.283835
RightHandThumb1 -24.326973 -0.000000 -32.862282
LeftUpLeg 12.791201 12.377820 6.712433
LeftLeg 7.197779 -0.000000 -0.000000
LeftFoot -13.058025 2.387315 -15.335638
LeftToeBase 7.679416 -0.000000 -0.000000
RightUpLeg 13.750463 -11.154192 -12.636258
RightLeg 2.309291 -0.000000 -0.000000
RightFoot -8.615018 6.105957 19.174019
RightToeBase 15.083024 -0.000000 -0.000000
2237
root 2.140870 35.943536 2.696932 -84.845889 -88.319313 76.561345
Spine 10.818254 1.697906 -6.343842
Head 7.158547 -5.035586 6.755818
LeftShoulder -7.581333 7.408064 30.169781
LeftArm 10.338324 -26.940914 -33.912531
LeftForeArm 23.596021 -0.000000 23.156612
LeftHand -14.477736 -0.000000 -9.163635
LeftHandThumb1 -26.253704 0.000000 33.147579
RightShoulder -26.965962 -40.053415 -7.691967
RightArm 52.546532 53.717994 57.954596
RightForeArm 1.519327 0.000000 12.502685
RightHand 0.681916 -0.000000 9.413358
RightHandThumb1 -24.326973 -0.000000 -32.862282
LeftUpLeg 12.770633 12.390854 6.689340
LeftLeg 7.176490 -0.000000 -0.000000
LeftFoot -12.998413 2.393597 -15.370656
LeftToeBase 7.643214 -0.000000 -0.000000
RightUpLeg 13.723601 -11.142142 -12.643353
RightLeg 2.300906 -0.000000 -0.000000
RightFoot -8.607219 6.082029 19.176501
RightToeBase 15.043365 -0.000000 -0.000000
2238
root 2.145261 35.944314 2.696528 -84.747911 -88.310105 76.489304
Spine 10.844533 1.696666 -6.317215
Head 7.165583 -4.931224 6.726065
LeftShoulder -7.556809 7.379807 30.199131
LeftArm 10.333059 -27.142207 -33.906130
LeftForeArm 23.806351 0.000000 22.652631
LeftHand -14.213511 -0.000000 -9.446149
LeftHandThumb1 -26.253704 0.000000 33.147579
RightShoulder -26.936199 -40.075330 -7.771372
RightArm 52.491344 53.729613 57.837849
RightForeArm 1.419095 0.000000 12.286200
RightHand 0.562708 -0.000000 9.623366
RightHandThumb1 -24.326973 -0.000000 -32.862282
LeftUpLeg 12.737825 12.383966 6.672010
LeftLeg 7.164408 -0.000000 -0.000000
LeftFoot -12.968136 2.404050 -15.364342
LeftToeBase 7.732795 -0.000000 -0.000000
RightUpLeg 13.687391 -11.146616 -12.644554
RightLeg 2.308551 -0.000000 -0.000000
RightFoot -8.605798 6.084408 19.178889
RightToeBase 15.054610 -0.000000 -0.000000
2239
root 2.149438 35.944843 2.696759 -84.391024 -88.293812 76.155355
Spine 10.878724 1.692728 -6.288370
Head 7.159071 -4.815895 6.680242
LeftShoulder -7.527051 7.339671 30.227339
LeftArm 10.402838 -27.432044 -33.958211
LeftForeArm 24.075575 -0.000000 22.042002
LeftHand -13.988745 0.000000 -9.697914
LeftHandThumb1 -26.253704 0.000000 33.147579
RightShoulder -26.937369 -40.101708 -7.842515
RightArm 52.418649 53.697061 57.692930
RightForeArm 1.289530 0.000000 12.082954
RightHand 0.494971 -0.000000 9.714363
RightHandThumb1 -24.326973 -0.000000 -32.862282
LeftUpLeg 12.716615 12.387717 6.649196
LeftLeg 7.135187 -0.000000 -0.000000
LeftFoot -12.929661 2.417787 -15.341447
LeftToeBase 7.810490 -0.000000 -0.000000
RightUpLeg 13.662745 -11.147083 -12.650080
RightLeg 2.303928 -0.000000 -0.000000
RightFoot -8.615118 6.062463 19.165333
RightToeBase 15.072194 -0.000000 -0.000000
